<?xml version="1.0" encoding="UTF-8"?>
<svg version="1.1" viewBox="0 0 2048 409" width="500" height="100" xmlns="http://www.w3.org/2000/svg">
<path transform="translate(0)" d="m0 0h2048v409h-2048z" fill="#6747BE"/>
<path transform="translate(12,12)" d="m0 0h783l1 1v383l-14 1h-768l-2-2z" fill="#FDFDFD"/>
<path transform="translate(211,93)" d="m0 0h25l22 4 16 6 13 7 12 9 10 9 5 5 1-35 1-1h236l1 1 1 129 1 20 3 14 4 9 6 9 9 7 12 5 10 2h21l15-4 11-7 8-9 6-13 2-10 1-11 1-142h50l1 1v156l-3 17-5 15-7 13-8 10-9 9-14 9-17 7-17 4-17 2h-18l-23-3-17-5-12-5-12-8-10-9-8-10-9-17-5-17-2-13v-111h-66v193h-50l-1-1v-192h-63l-2 5-29 16-7 4-5-1-11-11-14-9-10-4-9-2h-25l-14 4-14 7-12 11-8 10-7 14-4 15-1 8v13l2 14 5 15 7 13 11 12 9 7 13 6 11 3 6 1h20l14-3 13-5 12-7 1-2 1-28h-63l-1-3v-41h114l1 89-4 6-7 7-16 12-14 8-14 6-17 5-18 3h-23l-20-3-20-6-17-8-17-12-9-8-9-11-9-14-8-17-5-18-2-11v-29l3-17 5-16 9-19 8-11 9-10 9-9 10-7 16-9 19-7 12-3z" fill="#6747BE"/>
<path transform="translate(1761,124)" d="m0 0h25l16 4 14 7 13 10 8 9 8 14 5 13 3 15v11l-4 6-1 1-136 1 1 2 2 16 5 15 6 11 9 10 7 6 14 7 10 3 7 1h19l12-3 14-7 10-8 7-7 6-2 6 4 2 4-1 6-14 14-10 7-16 8-13 3-14 1-20-2-16-5-16-8-11-9-9-11-8-14-5-15-2-9-1-9v-16l2-17 5-16 8-15 8-10 11-11 11-7 11-5z" fill="#FDFDFD"/>
<path transform="translate(1080,124)" d="m0 0h25l16 4 15 8 9 7 6 5 9 13 6 12 4 15 1 6v14l-5 6-135 1 3 20 6 16 7 11 9 10 13 8 15 5 7 1h19l13-3 15-8 12-11 6-4 7 1 4 5-1 7-11 12-14 10-15 7-12 3h-28l-14-3-13-5-13-7-13-12-9-12-6-13-4-13-2-12v-26l4-20 5-13 7-11 9-11 10-9 13-8 15-5z" fill="#FDFDFD"/>
<path transform="translate(1256,124)" d="m0 0h26l12 3 11 6 9 8 7 11 5 13 2 11 1 13v104l-3 7-4 2-9-1-3-3-1-3-1-108-2-13-5-12-7-9-10-6-9-3-6-1h-13l-16 4-13 7-11 10-8 14-2 11-1 105-3 6-4 2h-6l-5-3-2-5v-159l4-5 3-1h7l5 5 1 4v17l6-5 5-5 9-8 16-9z" fill="#FDFDFD"/>
<path transform="translate(1445,129)" d="m0 0 8 1 4 3 1 5 1 108 3 12 6 11 7 7 12 6 12 3h18l15-4 9-5 6-5 6-10 4-13 1-11v-92l1-11 6-5h7l4 2 3 6v100l-2 19-5 15-7 11-9 9-12 7-15 5-14 2h-13l-15-2-12-4-12-6-12-11-7-12-4-12-2-13-1-39v-43l1-30 3-3z" fill="#FDFDFD"/>
<path transform="translate(1909,124)" d="m0 0h26l13 3 16 8 10 8 6 8v6l-7 6-6-1-12-10-14-7-14-3h-12l-14 3-10 6-6 7-3 10 1 10 3 6 4 5 11 7 30 10 17 5 16 8 8 6 7 8 4 8 2 9v12l-3 12-6 10-10 10-14 7-15 4-17 1-17-2-16-5-12-6-10-8-7-7-4-7v-6l5-5 3-2 5 1 8 7 8 8 11 7 13 5 12 2h11l14-3 11-6 7-8 3-7v-10l-3-9-6-7-16-8-41-13-12-5-10-7-8-9-5-10-2-8v-13l3-10 6-10 10-10 11-6 11-4z" fill="#FDFDFD"/>
<path transform="translate(864,124)" d="m0 0 7 1 5 6 9 19 12 29 19 45 17 40 3 3 3-9 23-54 18-43 12-28 4-7 4-2 9 2 4 4-1 7-8 20-24 56-20 47-13 30-6 10-2 2h-8l-5-5-8-16-33-77-16-37-12-29-1-8 6-5z" fill="#FDFDFD"/>
<path transform="translate(1373,80)" d="m0 0h6l5 3 2 4v41h21l18 1 4 3v12l-5 3h-38l1 122 3 9 5 4 6 2 15-1 5 5v6l-7 6-7 2h-14l-10-3-8-5-4-5-4-10-1-7v-125h-29l-5-4-1-2v-7l5-5 30-1v-42l5-5z" fill="#FDFDFD"/>
<path transform="translate(1085,143)" d="m0 0h14l16 4 12 6 11 10 7 11 5 13 1 9-9 1h-96l-13-1 1-7 5-12 7-12 7-8 11-7 11-5z" fill="#6747BE"/>
<path transform="translate(1767,143)" d="m0 0h13l14 3 14 7 10 9 6 7 6 13 2 8v6l-8 1h-95l-15-1 3-11 8-16 7-9 8-7 14-7 6-2z" fill="#6747BE"/>
<path transform="translate(1673,124)" d="m0 0h18l8 4 3 4-1 7-4 5-5 1-12-3h-8l-13 4-10 7-10 10-8 13-6 15-1 5-1 15-1 84-3 5-3 2h-7l-5-3-2-6v-158l7-6h7l5 4 1 3 1 29 6-9 7-9 7-8 13-9 12-5z" fill="#FDFDFD"/>
</svg>
